<svg width="23" height="27" viewBox="0 0 23 27" fill="none" xmlns="http://www.w3.org/2000/svg">
<path d="M18.8396 14.356C18.8532 13.3232 19.1342 12.3106 19.6564 11.4123C20.1786 10.514 20.9251 9.75933 21.8263 9.21839C21.2538 8.42009 20.4985 7.76313 19.6204 7.29967C18.7423 6.83621 17.7656 6.57903 16.7679 6.54856C14.6396 6.33045 12.5764 7.7919 11.4918 7.7919C10.3863 7.7919 8.7165 6.57021 6.91838 6.60633C5.75532 6.64301 4.62182 6.97321 3.62834 7.56474C2.63485 8.15627 1.81525 8.98897 1.24939 9.98169C-1.20171 14.1249 0.626596 20.214 2.97459 23.5631C4.14934 25.2031 5.52228 27.0349 7.31878 26.9699C9.07674 26.8988 9.73331 25.8755 11.8553 25.8755C13.9576 25.8755 14.5736 26.9699 16.4066 26.9286C18.293 26.8988 19.4814 25.2814 20.615 23.6259C21.4591 22.4574 22.1086 21.166 22.5395 19.7994C21.4435 19.3468 20.5083 18.5894 19.8503 17.6214C19.1924 16.6534 18.8409 15.5177 18.8396 14.356Z" fill="black"/>
<path d="M15.3784 4.34652C16.4069 3.14107 16.9136 1.59166 16.7909 0.0273438C15.2195 0.188473 13.768 0.921682 12.7256 2.08088C12.2159 2.64718 11.8256 3.306 11.5769 4.01967C11.3281 4.73335 11.2259 5.48788 11.2761 6.24015C12.062 6.24804 12.8396 6.08173 13.5502 5.75372C14.2608 5.42571 14.8858 4.94456 15.3784 4.34652Z" fill="black"/>
</svg>
