<svg width="535" height="114" viewBox="0 0 535 114" fill="none" xmlns="http://www.w3.org/2000/svg">
<path fill-rule="evenodd" clip-rule="evenodd" d="M243.354 1.16257C241.491 1.26555 234.866 1.62741 228.837 1.94239C154.359 5.70808 86.0249 16.5376 46.9101 30.8387C19.03 41.0418 2.44865 52.7913 0.963379 63.4818C-1.79286 82.5432 39.8021 98.1002 118.07 107.355C161.167 112.45 200.837 114.19 256.517 113.428C324.404 112.5 375.167 108.249 426.318 99.196C484.895 88.8055 523.52 73.7361 533.19 57.4824C535.354 53.7798 534.792 46.7903 531.944 42.997C516.198 22.139 456.246 8.68887 366.672 5.9308C348.175 5.36993 300.741 5.94108 278.898 6.93735C241.825 8.68013 208.73 11.4924 174.723 15.8242C141.529 20.0286 123.32 23.4855 96.4341 30.6609C79.172 35.2288 83.1215 35.2523 106.08 30.6453C131.131 25.6609 144.927 23.2719 163.964 20.6519C196.454 16.1858 228.743 13.0746 263.132 11.0585C288.929 9.54737 334.495 8.65299 356.825 9.1959C425.214 10.8916 476.375 18.735 503.173 31.6309C527.05 43.0983 529.207 55.9437 509.256 68.398C501.989 72.9067 494.82 76.0577 480.477 81.0119C460.567 87.9369 439.013 93.0629 411.52 97.4606C363.601 105.152 314.942 108.991 254.719 109.814C194.496 110.638 145.631 107.866 96.9224 100.449C59.8655 94.8073 35.2437 87.6431 22.2132 78.7745C14.5799 73.5438 13.0465 71.2438 12.9635 65.1736C12.9928 58.7917 15.626 55.354 25.9899 48.1763C58.2366 25.8869 132.226 10.9927 238.764 5.44086C271.06 3.7634 324.307 3.19025 344.911 4.33807C348.863 4.5553 352.126 4.58818 352.124 4.4332C352.116 3.852 342.333 2.36244 334.062 1.66602C319.972 0.467896 300.791 0.148896 272.66 0.572337C258.472 0.805112 245.347 1.10087 243.367 1.1667L243.354 1.16257Z" fill="#FFCA10"/>
</svg>
